<svg xmlns="http://www.w3.org/2000/svg" viewBox="0 0 100 100">
  <!-- Cute Fox Avatar -->
  <defs>
    <linearGradient id="foxBg" x1="0%" y1="0%" x2="100%" y2="100%">
      <stop offset="0%" style="stop-color:#fa709a"/>
      <stop offset="100%" style="stop-color:#fee140"/>
    </linearGradient>
  </defs>
  <circle cx="50" cy="50" r="50" fill="url(#foxBg)"/>
  <!-- Ears -->
  <path d="M15 40 L28 8 L42 35 Z" fill="#FF6B35"/>
  <path d="M58 35 L72 8 L85 40 Z" fill="#FF6B35"/>
  <path d="M20 38 L28 15 L38 35 Z" fill="#FFE4C9"/>
  <path d="M62 35 L72 15 L80 38 Z" fill="#FFE4C9"/>
  <!-- Face -->
  <ellipse cx="50" cy="58" rx="30" ry="26" fill="#FF6B35"/>
  <!-- White face patch -->
  <ellipse cx="50" cy="62" rx="20" ry="18" fill="#FFE4C9"/>
  <!-- Eyes -->
  <ellipse cx="38" cy="52" rx="6" ry="7" fill="white"/>
  <ellipse cx="62" cy="52" rx="6" ry="7" fill="white"/>
  <ellipse cx="39" cy="53" rx="4" ry="5" fill="#2D3436"/>
  <ellipse cx="63" cy="53" rx="4" ry="5" fill="#2D3436"/>
  <circle cx="40" cy="51" r="2" fill="white"/>
  <circle cx="64" cy="51" r="2" fill="white"/>
  <!-- Nose -->
  <ellipse cx="50" cy="65" rx="5" ry="4" fill="#2D3436"/>
  <!-- Mouth -->
  <path d="M45 72 Q50 77 55 72" stroke="#2D3436" stroke-width="2" fill="none"/>
  <!-- Wink sparkle -->
  <path d="M70 38 L73 32 L76 38 L82 41 L76 44 L73 50 L70 44 L64 41 Z" fill="white"/>
</svg>
