<svg xmlns="http://www.w3.org/2000/svg" viewBox="0 0 100 100">
  <!-- Cool Cat Avatar -->
  <defs>
    <linearGradient id="catBg1" x1="0%" y1="0%" x2="100%" y2="100%">
      <stop offset="0%" style="stop-color:#667eea"/>
      <stop offset="100%" style="stop-color:#764ba2"/>
    </linearGradient>
  </defs>
  <circle cx="50" cy="50" r="50" fill="url(#catBg1)"/>
  <!-- Cat ears -->
  <path d="M20 35 L30 15 L40 35 Z" fill="#FFD93D"/>
  <path d="M60 35 L70 15 L80 35 Z" fill="#FFD93D"/>
  <path d="M24 32 L30 18 L36 32 Z" fill="#FF6B9D"/>
  <path d="M64 32 L70 18 L76 32 Z" fill="#FF6B9D"/>
  <!-- Cat face -->
  <ellipse cx="50" cy="55" rx="28" ry="25" fill="#FFD93D"/>
  <!-- Eyes -->
  <ellipse cx="38" cy="50" rx="6" ry="8" fill="white"/>
  <ellipse cx="62" cy="50" rx="6" ry="8" fill="white"/>
  <ellipse cx="38" cy="51" rx="4" ry="5" fill="#2D3436"/>
  <ellipse cx="62" cy="51" rx="4" ry="5" fill="#2D3436"/>
  <circle cx="39" cy="49" r="2" fill="white"/>
  <circle cx="63" cy="49" r="2" fill="white"/>
  <!-- Nose -->
  <ellipse cx="50" cy="60" rx="4" ry="3" fill="#FF6B9D"/>
  <!-- Mouth -->
  <path d="M46 65 Q50 70 54 65" stroke="#2D3436" stroke-width="2" fill="none"/>
  <!-- Whiskers -->
  <line x1="15" y1="55" x2="32" y2="58" stroke="#2D3436" stroke-width="1.5"/>
  <line x1="15" y1="62" x2="32" y2="62" stroke="#2D3436" stroke-width="1.5"/>
  <line x1="68" y1="58" x2="85" y2="55" stroke="#2D3436" stroke-width="1.5"/>
  <line x1="68" y1="62" x2="85" y2="62" stroke="#2D3436" stroke-width="1.5"/>
  <!-- Sunglasses -->
  <rect x="28" y="44" width="18" height="14" rx="3" fill="#2D3436"/>
  <rect x="54" y="44" width="18" height="14" rx="3" fill="#2D3436"/>
  <line x1="46" y1="50" x2="54" y2="50" stroke="#2D3436" stroke-width="3"/>
</svg>
